STARTFONT 2.1
COMMENT ======================================================================
COMMENT     This font is Copyright (C) 1993 by Darren S. Embry.
COMMENT 
COMMENT     You may make modifications to this font as you wish, as long as
COMMENT     you document those changes and this notice is not removed.
COMMENT ======================================================================
FONT -dse-cantontypewriter-medium-i-normal--18-128-100-100-c-120-iso8859-1
SIZE 24 75 75
FONTBOUNDINGBOX 10 18 0 -5
STARTPROPERTIES 19
FONTNAME_REGISTRY ""
FOUNDRY "dse"
FAMILY_NAME "cantontypewriter"
WEIGHT_NAME "medium"
SLANT "i"
SETWIDTH_NAME "normal"
ADD_STYLE_NAME ""
PIXEL_SIZE 18
POINT_SIZE 128
RESOLUTION_X 100
RESOLUTION_Y 100
SPACING "C"
AVERAGE_WIDTH 120
CHARSET_REGISTRY "ISO8859"
CHARSET_ENCODING "1"
DEFAULT_CHAR 32
FONT_DESCENT 5
FONT_ASCENT 13
COPYRIGHT "Copyright (C) 1993 by Darren S. Embry."
ENDPROPERTIES
CHARS 256
STARTCHAR char0
ENCODING 0
SWIDTH 508 0
DWIDTH 10 0
BBX 10 18 0 -5
BITMAP
0000
0000
0000
0000
0000
0000
0000
0000
0000
0000
0000
0000
0000
0000
0000
0000
0000
0000
ENDCHAR
STARTCHAR char1
ENCODING 1
SWIDTH 508 0
DWIDTH 10 0
BBX 10 18 0 -5
BITMAP
0000
0000
0000
0000
0000
0000
0000
0000
0000
0000
0000
0000
0000
0000
0000
0000
0000
0000
ENDCHAR
STARTCHAR char2
ENCODING 2
SWIDTH 508 0
DWIDTH 10 0
BBX 10 18 0 -5
BITMAP
0000
0000
0000
0000
0000
0000
0000
0000
0000
0000
0000
0000
0000
0000
0000
0000
0000
0000
ENDCHAR
STARTCHAR char3
ENCODING 3
SWIDTH 508 0
DWIDTH 10 0
BBX 10 18 0 -5
BITMAP
0000
0000
0000
0000
0000
0000
0000
0000
0000
0000
0000
0000
0000
0000
0000
0000
0000
0000
ENDCHAR
STARTCHAR char4
ENCODING 4
SWIDTH 508 0
DWIDTH 10 0
BBX 10 18 0 -5
BITMAP
0000
0000
0000
0000
0000
0000
0000
0000
0000
0000
0000
0000
0000
0000
0000
0000
0000
0000
ENDCHAR
STARTCHAR char5
ENCODING 5
SWIDTH 508 0
DWIDTH 10 0
BBX 10 18 0 -5
BITMAP
0000
0000
0000
0000
0000
0000
0000
0000
0000
0000
0000
0000
0000
0000
0000
0000
0000
0000
ENDCHAR
STARTCHAR char6
ENCODING 6
SWIDTH 508 0
DWIDTH 10 0
BBX 10 18 0 -5
BITMAP
0000
0000
0000
0000
0000
0000
0000
0000
0000
0000
0000
0000
0000
0000
0000
0000
0000
0000
ENDCHAR
STARTCHAR char7
ENCODING 7
SWIDTH 508 0
DWIDTH 10 0
BBX 10 18 0 -5
BITMAP
0000
0000
0000
0000
0000
0000
0000
0000
0000
0000
0000
0000
0000
0000
0000
0000
0000
0000
ENDCHAR
STARTCHAR char8
ENCODING 8
SWIDTH 508 0
DWIDTH 10 0
BBX 10 18 0 -5
BITMAP
0000
0000
0000
0000
0000
0000
0000
0000
0000
0000
0000
0000
0000
0000
0000
0000
0000
0000
ENDCHAR
STARTCHAR char9
ENCODING 9
SWIDTH 508 0
DWIDTH 10 0
BBX 10 18 0 -5
BITMAP
0000
0000
0000
0000
0000
0000
0000
0000
0000
0000
0000
0000
0000
0000
0000
0000
0000
0000
ENDCHAR
STARTCHAR char10
ENCODING 10
SWIDTH 508 0
DWIDTH 10 0
BBX 10 18 0 -5
BITMAP
0000
0000
0000
0000
0000
0000
0000
0000
0000
0000
0000
0000
0000
0000
0000
0000
0000
0000
ENDCHAR
STARTCHAR char11
ENCODING 11
SWIDTH 508 0
DWIDTH 10 0
BBX 10 18 0 -5
BITMAP
0000
0000
0000
0000
0000
0000
0000
0000
0000
0000
0000
0000
0000
0000
0000
0000
0000
0000
ENDCHAR
STARTCHAR char12
ENCODING 12
SWIDTH 508 0
DWIDTH 10 0
BBX 10 18 0 -5
BITMAP
0000
0000
0000
0000
0000
0000
0000
0000
0000
0000
0000
0000
0000
0000
0000
0000
0000
0000
ENDCHAR
STARTCHAR char13
ENCODING 13
SWIDTH 508 0
DWIDTH 10 0
BBX 10 18 0 -5
BITMAP
0000
0000
0000
0000
0000
0000
0000
0000
0000
0000
0000
0000
0000
0000
0000
0000
0000
0000
ENDCHAR
STARTCHAR char14
ENCODING 14
SWIDTH 508 0
DWIDTH 10 0
BBX 10 18 0 -5
BITMAP
0000
0000
0000
0000
0000
0000
0000
0000
0000
0000
0000
0000
0000
0000
0000
0000
0000
0000
ENDCHAR
STARTCHAR char15
ENCODING 15
SWIDTH 508 0
DWIDTH 10 0
BBX 10 18 0 -5
BITMAP
0000
0000
0000
0000
0000
0000
0000
0000
0000
0000
0000
0000
0000
0000
0000
0000
0000
0000
ENDCHAR
STARTCHAR char16
ENCODING 16
SWIDTH 508 0
DWIDTH 10 0
BBX 10 18 0 -5
BITMAP
0000
0000
0000
0000
0000
0000
0000
0000
0000
0000
0000
0000
0000
0000
0000
0000
0000
0000
ENDCHAR
STARTCHAR char17
ENCODING 17
SWIDTH 508 0
DWIDTH 10 0
BBX 10 18 0 -5
BITMAP
0000
0000
0000
0000
0000
0000
0000
0000
0000
0000
0000
0000
0000
0000
0000
0000
0000
0000
ENDCHAR
STARTCHAR char18
ENCODING 18
SWIDTH 508 0
DWIDTH 10 0
BBX 10 18 0 -5
BITMAP
0000
0000
0000
0000
0000
0000
0000
0000
0000
0000
0000
0000
0000
0000
0000
0000
0000
0000
ENDCHAR
STARTCHAR char19
ENCODING 19
SWIDTH 508 0
DWIDTH 10 0
BBX 10 18 0 -5
BITMAP
0000
0000
0000
0000
0000
0000
0000
0000
0000
0000
0000
0000
0000
0000
0000
0000
0000
0000
ENDCHAR
STARTCHAR char20
ENCODING 20
SWIDTH 508 0
DWIDTH 10 0
BBX 10 18 0 -5
BITMAP
0000
0000
0000
0000
0000
0000
0000
0000
0000
0000
0000
0000
0000
0000
0000
0000
0000
0000
ENDCHAR
STARTCHAR char21
ENCODING 21
SWIDTH 508 0
DWIDTH 10 0
BBX 10 18 0 -5
BITMAP
0000
0000
0000
0000
0000
0000
0000
0000
0000
0000
0000
0000
0000
0000
0000
0000
0000
0000
ENDCHAR
STARTCHAR char22
ENCODING 22
SWIDTH 508 0
DWIDTH 10 0
BBX 10 18 0 -5
BITMAP
0000
0000
0000
0000
0000
0000
0000
0000
0000
0000
0000
0000
0000
0000
0000
0000
0000
0000
ENDCHAR
STARTCHAR char23
ENCODING 23
SWIDTH 508 0
DWIDTH 10 0
BBX 10 18 0 -5
BITMAP
0000
0000
0000
0000
0000
0000
0000
0000
0000
0000
0000
0000
0000
0000
0000
0000
0000
0000
ENDCHAR
STARTCHAR char24
ENCODING 24
SWIDTH 508 0
DWIDTH 10 0
BBX 10 18 0 -5
BITMAP
0000
0000
0000
0000
0000
0000
0000
0000
0000
0000
0000
0000
0000
0000
0000
0000
0000
0000
ENDCHAR
STARTCHAR char25
ENCODING 25
SWIDTH 508 0
DWIDTH 10 0
BBX 10 18 0 -5
BITMAP
0000
0000
0000
0000
0000
0000
0000
0000
0000
0000
0000
0000
0000
0000
0000
0000
0000
0000
ENDCHAR
STARTCHAR char26
ENCODING 26
SWIDTH 508 0
DWIDTH 10 0
BBX 10 18 0 -5
BITMAP
0000
0000
0000
0000
0000
0000
0000
0000
0000
0000
0000
0000
0000
0000
0000
0000
0000
0000
ENDCHAR
STARTCHAR char27
ENCODING 27
SWIDTH 508 0
DWIDTH 10 0
BBX 10 18 0 -5
BITMAP
0000
0000
0000
0000
0000
0000
0000
0000
0000
0000
0000
0000
0000
0000
0000
0000
0000
0000
ENDCHAR
STARTCHAR char28
ENCODING 28
SWIDTH 508 0
DWIDTH 10 0
BBX 10 18 0 -5
BITMAP
0000
0000
0000
0000
0000
0000
0000
0000
0000
0000
0000
0000
0000
0000
0000
0000
0000
0000
ENDCHAR
STARTCHAR char29
ENCODING 29
SWIDTH 508 0
DWIDTH 10 0
BBX 10 18 0 -5
BITMAP
0000
0000
0000
0000
0000
0000
0000
0000
0000
0000
0000
0000
0000
0000
0000
0000
0000
0000
ENDCHAR
STARTCHAR char30
ENCODING 30
SWIDTH 508 0
DWIDTH 10 0
BBX 10 18 0 -5
BITMAP
0000
0000
0000
0000
0000
0000
0000
0000
0000
0000
0000
0000
0000
0000
0000
0000
0000
0000
ENDCHAR
STARTCHAR char31
ENCODING 31
SWIDTH 508 0
DWIDTH 10 0
BBX 10 18 0 -5
BITMAP
0000
0000
0000
0000
0000
0000
0000
0000
0000
0000
0000
0000
0000
0000
0000
0000
0000
0000
ENDCHAR
STARTCHAR char32
ENCODING 32
SWIDTH 508 0
DWIDTH 10 0
BBX 10 18 0 -5
BITMAP
0000
0000
0000
0000
0000
0000
0000
0000
0000
0000
0000
0000
0000
0000
0000
0000
0000
0000
ENDCHAR
STARTCHAR char33
ENCODING 33
SWIDTH 508 0
DWIDTH 10 0
BBX 10 18 0 -5
BITMAP
0000
0000
0200
0700
0700
0600
0400
0400
0000
0000
0800
1c00
0800
0000
0000
0000
0000
0000
ENDCHAR
STARTCHAR char34
ENCODING 34
SWIDTH 508 0
DWIDTH 10 0
BBX 10 18 0 -5
BITMAP
0000
0000
0880
1dc0
1980
1100
1100
0000
0000
0000
0000
0000
0000
0000
0000
0000
0000
0000
ENDCHAR
STARTCHAR char35
ENCODING 35
SWIDTH 508 0
DWIDTH 10 0
BBX 10 18 0 -5
BITMAP
0000
0000
0240
0240
0480
0480
0900
7fc0
1200
1200
ff80
2400
4800
4800
9000
9000
0000
0000
ENDCHAR
STARTCHAR char36
ENCODING 36
SWIDTH 508 0
DWIDTH 10 0
BBX 10 18 0 -5
BITMAP
0000
0200
0200
0f00
1580
2580
3400
1e00
0b00
0900
4900
6a00
3c00
1000
1000
0000
0000
0000
ENDCHAR
STARTCHAR char37
ENCODING 37
SWIDTH 508 0
DWIDTH 10 0
BBX 10 18 0 -5
BITMAP
0000
0000
0000
0c40
1680
2500
6a00
3400
0580
0ac0
1480
2d00
4600
0000
0000
0000
0000
0000
ENDCHAR
STARTCHAR char38
ENCODING 38
SWIDTH 508 0
DWIDTH 10 0
BBX 10 18 0 -5
BITMAP
0000
0000
0000
0e00
1300
3200
1c00
18c0
2d00
4600
cc00
d680
6300
0000
0000
0000
0000
0000
ENDCHAR
STARTCHAR char39
ENCODING 39
SWIDTH 508 0
DWIDTH 10 0
BBX 10 18 0 -5
BITMAP
0000
0000
0200
0700
0600
0400
0800
1000
0000
0000
0000
0000
0000
0000
0000
0000
0000
0000
ENDCHAR
STARTCHAR char40
ENCODING 40
SWIDTH 508 0
DWIDTH 10 0
BBX 10 18 0 -5
BITMAP
0000
0000
0080
0100
0200
0400
0800
0800
1000
1000
1000
1000
1800
0800
0e00
0400
0000
0000
ENDCHAR
STARTCHAR char41
ENCODING 41
SWIDTH 508 0
DWIDTH 10 0
BBX 10 18 0 -5
BITMAP
0000
0000
0800
1c00
0400
0600
0200
0200
0200
0200
0400
0400
0800
1000
2000
4000
0000
0000
ENDCHAR
STARTCHAR char42
ENCODING 42
SWIDTH 508 0
DWIDTH 10 0
BBX 10 18 0 -5
BITMAP
0000
0000
0200
1240
1ac0
0700
0e00
3580
2480
0400
0000
0000
0000
0000
0000
0000
0000
0000
ENDCHAR
STARTCHAR char43
ENCODING 43
SWIDTH 508 0
DWIDTH 10 0
BBX 10 18 0 -5
BITMAP
0000
0000
0000
0000
0000
0400
0400
0400
3f00
0800
0800
0800
0000
0000
0000
0000
0000
0000
ENDCHAR
STARTCHAR char44
ENCODING 44
SWIDTH 508 0
DWIDTH 10 0
BBX 10 18 0 -5
BITMAP
0000
0000
0000
0000
0000
0000
0000
0000
0000
0000
0800
1c00
1800
1000
2000
4000
0000
0000
ENDCHAR
STARTCHAR char45
ENCODING 45
SWIDTH 508 0
DWIDTH 10 0
BBX 10 18 0 -5
BITMAP
0000
0000
0000
0000
0000
0000
0000
0000
3f00
0000
0000
0000
0000
0000
0000
0000
0000
0000
ENDCHAR
STARTCHAR char46
ENCODING 46
SWIDTH 508 0
DWIDTH 10 0
BBX 10 18 0 -5
BITMAP
0000
0000
0000
0000
0000
0000
0000
0000
0000
0000
0800
1c00
0800
0000
0000
0000
0000
0000
ENDCHAR
STARTCHAR char47
ENCODING 47
SWIDTH 508 0
DWIDTH 10 0
BBX 10 18 0 -5
BITMAP
0000
0000
0040
0080
0080
0100
0200
0200
0400
0800
1000
1000
2000
4000
4000
8000
0000
0000
ENDCHAR
STARTCHAR char48
ENCODING 48
SWIDTH 508 0
DWIDTH 10 0
BBX 10 18 0 -5
BITMAP
0000
0000
0000
0700
0980
10c0
2040
2080
2080
4080
6100
3200
1c00
0000
0000
0000
0000
0000
ENDCHAR
STARTCHAR char49
ENCODING 49
SWIDTH 508 0
DWIDTH 10 0
BBX 10 18 0 -5
BITMAP
0000
0000
0000
0200
0600
1a00
0400
0400
0400
0400
0800
0800
7f00
0000
0000
0000
0000
0000
ENDCHAR
STARTCHAR char50
ENCODING 50
SWIDTH 508 0
DWIDTH 10 0
BBX 10 18 0 -5
BITMAP
0000
0000
0000
0780
08c0
1040
0080
0180
0200
0c00
1000
2100
7f00
0000
0000
0000
0000
0000
ENDCHAR
STARTCHAR char51
ENCODING 51
SWIDTH 508 0
DWIDTH 10 0
BBX 10 18 0 -5
BITMAP
0000
0000
0000
0700
0980
1080
0100
0600
0300
0100
4100
6200
3c00
0000
0000
0000
0000
0000
ENDCHAR
STARTCHAR char52
ENCODING 52
SWIDTH 508 0
DWIDTH 10 0
BBX 10 18 0 -5
BITMAP
0000
0000
0000
0200
0400
0400
0900
1100
2200
7f00
0200
0200
0700
0000
0000
0000
0000
0000
ENDCHAR
STARTCHAR char53
ENCODING 53
SWIDTH 508 0
DWIDTH 10 0
BBX 11 18 0 -5
BITMAP
0000
0000
0000
0fc0
0800
0800
1e00
0300
0180
0100
4100
6200
3c00
0000
0000
0000
0000
0000
ENDCHAR
STARTCHAR char54
ENCODING 54
SWIDTH 508 0
DWIDTH 10 0
BBX 10 18 0 -5
BITMAP
0000
0000
0000
0180
0600
0800
1000
2f00
3180
6080
4100
6200
3c00
0000
0000
0000
0000
0000
ENDCHAR
STARTCHAR char55
ENCODING 55
SWIDTH 508 0
DWIDTH 10 0
BBX 10 18 0 -5
BITMAP
0000
0000
0000
1fc0
1080
2100
0200
0400
0400
0800
1000
1000
2000
0000
0000
0000
0000
0000
ENDCHAR
STARTCHAR char56
ENCODING 56
SWIDTH 508 0
DWIDTH 10 0
BBX 10 18 0 -5
BITMAP
0000
0000
0000
0700
0980
1080
1900
0e00
1180
2080
4100
6200
3c00
0000
0000
0000
0000
0000
ENDCHAR
STARTCHAR char57
ENCODING 57
SWIDTH 508 0
DWIDTH 10 0
BBX 10 18 0 -5
BITMAP
0000
0000
0000
0780
08c0
1040
20c0
3180
1e80
0100
0200
0c00
3000
0000
0000
0000
0000
0000
ENDCHAR
STARTCHAR char58
ENCODING 58
SWIDTH 508 0
DWIDTH 10 0
BBX 10 18 0 -5
BITMAP
0000
0000
0000
0000
0000
0400
0e00
0400
0000
0000
0800
1c00
0800
0000
0000
0000
0000
0000
ENDCHAR
STARTCHAR char59
ENCODING 59
SWIDTH 508 0
DWIDTH 10 0
BBX 10 18 0 -5
BITMAP
0000
0000
0000
0000
0000
0400
0e00
0400
0000
0000
0800
1c00
1800
1000
2000
4000
0000
0000
ENDCHAR
STARTCHAR char60
ENCODING 60
SWIDTH 508 0
DWIDTH 10 0
BBX 10 18 0 -5
BITMAP
0000
0000
0000
0000
00c0
0100
0600
0800
3000
1000
0c00
0200
0100
0000
0000
0000
0000
0000
ENDCHAR
STARTCHAR char61
ENCODING 61
SWIDTH 508 0
DWIDTH 10 0
BBX 10 18 0 -5
BITMAP
0000
0000
0000
0000
0000
0000
0000
3f80
0000
0000
7f00
0000
0000
0000
0000
0000
0000
0000
ENDCHAR
STARTCHAR char62
ENCODING 62
SWIDTH 508 0
DWIDTH 10 0
BBX 10 18 0 -5
BITMAP
0000
0000
0000
0000
1000
0800
0600
0100
0180
0200
0c00
1000
6000
0000
0000
0000
0000
0000
ENDCHAR
STARTCHAR char63
ENCODING 63
SWIDTH 508 0
DWIDTH 10 0
BBX 10 18 0 -5
BITMAP
0000
0000
0000
0780
08c0
1040
0080
0300
0400
0000
0800
1c00
0800
0000
0000
0000
0000
0000
ENDCHAR
STARTCHAR char64
ENCODING 64
SWIDTH 508 0
DWIDTH 10 0
BBX 10 18 0 -5
BITMAP
0000
0000
0000
0780
1840
2240
4d40
5140
9180
9b00
ce00
6000
3e00
0000
0000
0000
0000
0000
ENDCHAR
STARTCHAR char65
ENCODING 65
SWIDTH 508 0
DWIDTH 10 0
BBX 10 18 0 -5
BITMAP
0000
0000
0000
0200
0600
0600
0a00
1200
1300
3f00
2100
4100
e380
0000
0000
0000
0000
0000
ENDCHAR
STARTCHAR char66
ENCODING 66
SWIDTH 508 0
DWIDTH 10 0
BBX 10 18 0 -5
BITMAP
0000
0000
0000
7e00
1300
1100
1200
1e00
2300
2100
2100
2200
fc00
0000
0000
0000
0000
0000
ENDCHAR
STARTCHAR char67
ENCODING 67
SWIDTH 508 0
DWIDTH 10 0
BBX 10 18 0 -5
BITMAP
0000
0000
0000
0680
1980
2100
2100
4000
4000
4000
6100
3200
1c00
0000
0000
0000
0000
0000
ENDCHAR
STARTCHAR char68
ENCODING 68
SWIDTH 508 0
DWIDTH 10 0
BBX 10 18 0 -5
BITMAP
0000
0000
0000
7e00
1300
1180
1080
1080
2080
2100
2100
2600
f800
0000
0000
0000
0000
0000
ENDCHAR
STARTCHAR char69
ENCODING 69
SWIDTH 508 0
DWIDTH 10 0
BBX 10 18 0 -5
BITMAP
0000
0000
0000
7f80
1080
1080
1200
1c00
2400
2000
2100
2100
ff00
0000
0000
0000
0000
0000
ENDCHAR
STARTCHAR char70
ENCODING 70
SWIDTH 508 0
DWIDTH 10 0
BBX 10 18 0 -5
BITMAP
0000
0000
0000
7f80
1080
1080
1000
1200
3e00
2200
2000
2000
f800
0000
0000
0000
0000
0000
ENDCHAR
STARTCHAR char71
ENCODING 71
SWIDTH 508 0
DWIDTH 10 0
BBX 10 18 0 -5
BITMAP
0000
0000
0000
0680
1980
2080
2000
4000
4780
4100
6100
3300
1c00
0000
0000
0000
0000
0000
ENDCHAR
STARTCHAR char72
ENCODING 72
SWIDTH 508 0
DWIDTH 10 0
BBX 10 18 0 -5
BITMAP
0000
0000
0000
71c0
2080
2080
2080
3f00
2100
4100
4100
4100
e380
0000
0000
0000
0000
0000
ENDCHAR
STARTCHAR char73
ENCODING 73
SWIDTH 508 0
DWIDTH 10 0
BBX 10 18 0 -5
BITMAP
0000
0000
0000
1f00
0400
0400
0400
0400
0800
0800
0800
0800
3e00
0000
0000
0000
0000
0000
ENDCHAR
STARTCHAR char74
ENCODING 74
SWIDTH 508 0
DWIDTH 10 0
BBX 10 18 0 -5
BITMAP
0000
0000
0000
1f00
0400
0400
0400
0400
0800
0800
0800
1000
1000
1000
2000
4000
8000
0000
ENDCHAR
STARTCHAR char75
ENCODING 75
SWIDTH 508 0
DWIDTH 10 0
BBX 10 18 0 -5
BITMAP
0000
0000
0000
71c0
2200
2400
2800
3800
2400
4400
4200
4100
e380
0000
0000
0000
0000
0000
ENDCHAR
STARTCHAR char76
ENCODING 76
SWIDTH 508 0
DWIDTH 10 0
BBX 10 18 0 -5
BITMAP
0000
0000
0000
7c00
1000
1000
1000
1000
2000
2000
2100
2100
ff00
0000
0000
0000
0000
0000
ENDCHAR
STARTCHAR char77
ENCODING 77
SWIDTH 508 0
DWIDTH 10 0
BBX 10 18 0 -5
BITMAP
0000
0000
0000
60c0
2180
3180
3280
3480
5d00
4900
4900
4100
e380
0000
0000
0000
0000
0000
ENDCHAR
STARTCHAR char78
ENCODING 78
SWIDTH 508 0
DWIDTH 10 0
BBX 10 18 0 -5
BITMAP
0000
0000
0000
61c0
3080
3880
2880
2d00
2500
4700
4300
4300
e100
0000
0000
0000
0000
0000
ENDCHAR
STARTCHAR char79
ENCODING 79
SWIDTH 508 0
DWIDTH 10 0
BBX 10 18 0 -5
BITMAP
0000
0000
0000
0f00
1180
2080
2080
2080
4100
4100
4100
6200
3c00
0000
0000
0000
0000
0000
ENDCHAR
STARTCHAR char80
ENCODING 80
SWIDTH 508 0
DWIDTH 10 0
BBX 10 18 0 -5
BITMAP
0000
0000
0000
7f00
1180
1080
1080
1300
3c00
2000
2000
2000
f800
0000
0000
0000
0000
0000
ENDCHAR
STARTCHAR char81
ENCODING 81
SWIDTH 508 0
DWIDTH 10 0
BBX 10 18 0 -5
BITMAP
0000
0000
0000
0f00
1180
2080
2080
2080
4100
4100
4100
6200
3c00
0800
0c00
0700
0000
0000
ENDCHAR
STARTCHAR char82
ENCODING 82
SWIDTH 508 0
DWIDTH 10 0
BBX 10 18 0 -5
BITMAP
0000
0000
0000
7f00
1180
1080
1080
1300
3c00
2c00
2600
2300
f980
0000
0000
0000
0000
0000
ENDCHAR
STARTCHAR char83
ENCODING 83
SWIDTH 508 0
DWIDTH 10 0
BBX 10 18 0 -5
BITMAP
0000
0000
0000
0f00
1180
2080
3000
1e00
0300
0100
4100
6200
3c00
0000
0000
0000
0000
0000
ENDCHAR
STARTCHAR char84
ENCODING 84
SWIDTH 508 0
DWIDTH 10 0
BBX 10 18 0 -5
BITMAP
0000
0000
0000
3f80
2480
2480
0400
0400
0800
0800
0800
0800
3e00
0000
0000
0000
0000
0000
ENDCHAR
STARTCHAR char85
ENCODING 85
SWIDTH 508 0
DWIDTH 10 0
BBX 10 18 0 -5
BITMAP
0000
0000
0000
71c0
2080
2080
2080
2080
4100
4100
4100
6200
3c00
0000
0000
0000
0000
0000
ENDCHAR
STARTCHAR char86
ENCODING 86
SWIDTH 508 0
DWIDTH 10 0
BBX 10 18 0 -5
BITMAP
0000
0000
0000
71c0
2080
2100
2100
3200
1200
1400
1400
1800
0800
0000
0000
0000
0000
0000
ENDCHAR
STARTCHAR char87
ENCODING 87
SWIDTH 508 0
DWIDTH 10 0
BBX 10 18 0 -5
BITMAP
0000
0000
0000
75c0
2480
2480
2d00
2d00
3700
3300
3200
2200
2200
0000
0000
0000
0000
0000
ENDCHAR
STARTCHAR char88
ENCODING 88
SWIDTH 508 0
DWIDTH 10 0
BBX 10 18 0 -5
BITMAP
0000
0000
0000
71c0
1100
1a00
0a00
0c00
0c00
1400
1600
2200
e380
0000
0000
0000
0000
0000
ENDCHAR
STARTCHAR char89
ENCODING 89
SWIDTH 508 0
DWIDTH 10 0
BBX 10 18 0 -5
BITMAP
0000
0000
0000
71c0
2080
1100
1a00
0c00
0400
0800
0800
0800
3e00
0000
0000
0000
0000
0000
ENDCHAR
STARTCHAR char90
ENCODING 90
SWIDTH 508 0
DWIDTH 10 0
BBX 10 18 0 -5
BITMAP
0000
0000
0000
1f80
1100
2200
0400
0400
0800
1000
2080
4100
7f00
0000
0000
0000
0000
0000
ENDCHAR
STARTCHAR char91
ENCODING 91
SWIDTH 508 0
DWIDTH 10 0
BBX 10 18 0 -5
BITMAP
0000
0000
0700
0400
0400
0800
0800
0800
0800
1000
1000
1000
1000
2000
2000
3800
0000
0000
ENDCHAR
STARTCHAR char92
ENCODING 92
SWIDTH 508 0
DWIDTH 10 0
BBX 10 18 0 -5
BITMAP
0000
0000
1000
1000
1000
0800
0800
0800
0800
0400
0400
0400
0400
0200
0200
0200
0000
0000
ENDCHAR
STARTCHAR char93
ENCODING 93
SWIDTH 508 0
DWIDTH 10 0
BBX 10 18 0 -5
BITMAP
0000
0000
0700
0100
0100
0200
0200
0200
0200
0400
0400
0400
0400
0800
0800
3800
0000
0000
ENDCHAR
STARTCHAR char94
ENCODING 94
SWIDTH 508 0
DWIDTH 10 0
BBX 10 18 0 -5
BITMAP
0000
0000
0200
0500
1900
2080
0000
0000
0000
0000
0000
0000
0000
0000
0000
0000
0000
0000
ENDCHAR
STARTCHAR char95
ENCODING 95
SWIDTH 508 0
DWIDTH 10 0
BBX 10 18 0 -5
BITMAP
0000
0000
0000
0000
0000
0000
0000
0000
0000
0000
0000
0000
0000
0000
0000
0000
fe00
0000
ENDCHAR
STARTCHAR char96
ENCODING 96
SWIDTH 508 0
DWIDTH 10 0
BBX 10 18 0 -5
BITMAP
0000
0000
0080
0100
0200
0600
0e00
0400
0000
0000
0000
0000
0000
0000
0000
0000
0000
0000
ENDCHAR
STARTCHAR char97
ENCODING 97
SWIDTH 508 0
DWIDTH 10 0
BBX 10 18 0 -5
BITMAP
0000
0000
0000
0000
0000
0700
0980
0080
0780
1900
2100
6300
3c80
0000
0000
0000
0000
0000
ENDCHAR
STARTCHAR char98
ENCODING 98
SWIDTH 508 0
DWIDTH 10 0
BBX 10 18 0 -5
BITMAP
0000
0000
3000
1000
1000
2700
2980
3080
2080
4100
4100
6200
5c00
0000
0000
0000
0000
0000
ENDCHAR
STARTCHAR char99
ENCODING 99
SWIDTH 508 0
DWIDTH 10 0
BBX 10 18 0 -5
BITMAP
0000
0000
0000
0000
0000
0f00
1180
2080
2000
4000
4000
6100
3e00
0000
0000
0000
0000
0000
ENDCHAR
STARTCHAR char100
ENCODING 100
SWIDTH 508 0
DWIDTH 10 0
BBX 10 18 0 -5
BITMAP
0000
0000
01c0
0040
0040
0e80
1180
2080
2080
4080
4300
6500
3980
0000
0000
0000
0000
0000
ENDCHAR
STARTCHAR char101
ENCODING 101
SWIDTH 508 0
DWIDTH 10 0
BBX 10 18 0 -5
BITMAP
0000
0000
0000
0000
0000
0f00
3180
2100
7e00
4000
4000
6100
3e00
0000
0000
0000
0000
0000
ENDCHAR
STARTCHAR char102
ENCODING 102
SWIDTH 508 0
DWIDTH 10 0
BBX 10 18 0 -5
BITMAP
0000
0000
0180
06c0
0400
3f00
0800
0800
0800
0800
1000
1000
7c00
0000
0000
0000
0000
0000
ENDCHAR
STARTCHAR char103
ENCODING 103
SWIDTH 508 0
DWIDTH 10 0
BBX 10 18 0 -5
BITMAP
0000
0000
0000
00c0
0080
1f00
2180
2080
4100
6100
3e00
1000
3e00
4300
c200
7c00
0000
0000
ENDCHAR
STARTCHAR char104
ENCODING 104
SWIDTH 508 0
DWIDTH 10 0
BBX 10 18 0 -5
BITMAP
0000
0000
3000
1000
1000
2700
2980
3080
2080
4100
4100
4100
e380
0000
0000
0000
0000
0000
ENDCHAR
STARTCHAR char105
ENCODING 105
SWIDTH 508 0
DWIDTH 10 0
BBX 10 18 0 -5
BITMAP
0000
0200
0700
0200
0000
1c00
0400
0400
0400
0800
0800
0800
7f00
0000
0000
0000
0000
0000
ENDCHAR
STARTCHAR char106
ENCODING 106
SWIDTH 508 0
DWIDTH 10 0
BBX 10 18 0 -5
BITMAP
0000
0100
0380
0100
0000
0e00
0200
0200
0200
0400
0400
0400
0800
0800
1000
2000
4000
0000
ENDCHAR
STARTCHAR char107
ENCODING 107
SWIDTH 508 0
DWIDTH 10 0
BBX 10 18 0 -5
BITMAP
0000
0000
3000
1000
1000
2380
2200
2c00
3000
7800
4400
4200
e380
0000
0000
0000
0000
0000
ENDCHAR
STARTCHAR char108
ENCODING 108
SWIDTH 508 0
DWIDTH 10 0
BBX 10 18 0 -5
BITMAP
0000
0000
0e00
0200
0200
0400
0400
0400
0400
0800
0800
0800
7f00
0000
0000
0000
0000
0000
ENDCHAR
STARTCHAR char109
ENCODING 109
SWIDTH 508 0
DWIDTH 10 0
BBX 10 18 0 -5
BITMAP
0000
0000
0000
0000
0000
6900
3680
2480
2480
4c80
4900
4900
ed80
0000
0000
0000
0000
0000
ENDCHAR
STARTCHAR char110
ENCODING 110
SWIDTH 508 0
DWIDTH 10 0
BBX 10 18 0 -5
BITMAP
0000
0000
0000
0000
0000
6f00
3180
2080
2080
2100
4100
4100
e780
0000
0000
0000
0000
0000
ENDCHAR
STARTCHAR char111
ENCODING 111
SWIDTH 508 0
DWIDTH 10 0
BBX 10 18 0 -5
BITMAP
0000
0000
0000
0000
0000
0f00
1180
2080
4080
4080
4100
6200
3c00
0000
0000
0000
0000
0000
ENDCHAR
STARTCHAR char112
ENCODING 112
SWIDTH 508 0
DWIDTH 10 0
BBX 10 18 0 -5
BITMAP
0000
0000
0000
0000
0000
6f00
3180
2080
4080
4080
4100
6200
5c00
8000
8000
e000
0000
0000
ENDCHAR
STARTCHAR char113
ENCODING 113
SWIDTH 508 0
DWIDTH 10 0
BBX 10 18 0 -5
BITMAP
0000
0000
0000
0000
0000
0e80
1180
2080
2080
4100
4300
6500
3900
0200
0200
0f00
0000
0000
ENDCHAR
STARTCHAR char114
ENCODING 114
SWIDTH 508 0
DWIDTH 10 0
BBX 10 18 0 -5
BITMAP
0000
0000
0000
0000
0000
7700
1980
1080
1000
2000
2000
2000
fc00
0000
0000
0000
0000
0000
ENDCHAR
STARTCHAR char115
ENCODING 115
SWIDTH 508 0
DWIDTH 10 0
BBX 10 18 0 -5
BITMAP
0000
0000
0000
0000
0000
1f00
2180
3000
1e00
0300
4100
6100
3e00
0000
0000
0000
0000
0000
ENDCHAR
STARTCHAR char116
ENCODING 116
SWIDTH 508 0
DWIDTH 10 0
BBX 10 18 0 -5
BITMAP
0000
0000
0000
0400
0400
3f00
0800
0800
0800
1000
1000
1900
0e00
0000
0000
0000
0000
0000
ENDCHAR
STARTCHAR char117
ENCODING 117
SWIDTH 508 0
DWIDTH 10 0
BBX 10 18 0 -5
BITMAP
0000
0000
0000
0000
0000
6180
2080
2080
2080
4100
4300
6500
3980
0000
0000
0000
0000
0000
ENDCHAR
STARTCHAR char118
ENCODING 118
SWIDTH 508 0
DWIDTH 10 0
BBX 10 18 0 -5
BITMAP
0000
0000
0000
0000
0000
71c0
2080
3100
1200
1200
1400
1800
0800
0000
0000
0000
0000
0000
ENDCHAR
STARTCHAR char119
ENCODING 119
SWIDTH 508 0
DWIDTH 10 0
BBX 10 18 0 -5
BITMAP
0000
0000
0000
0000
0000
71c0
2480
2480
2d00
2f00
3200
3200
2200
0000
0000
0000
0000
0000
ENDCHAR
STARTCHAR char120
ENCODING 120
SWIDTH 508 0
DWIDTH 10 0
BBX 10 18 0 -5
BITMAP
0000
0000
0000
0000
0000
71c0
1100
1a00
0c00
0c00
1600
2200
e380
0000
0000
0000
0000
0000
ENDCHAR
STARTCHAR char121
ENCODING 121
SWIDTH 508 0
DWIDTH 10 0
BBX 10 18 0 -5
BITMAP
0000
0000
0000
0000
0000
71c0
2080
3100
1100
1200
1c00
0800
0800
1000
e000
c000
0000
0000
ENDCHAR
STARTCHAR char122
ENCODING 122
SWIDTH 508 0
DWIDTH 10 0
BBX 10 18 0 -5
BITMAP
0000
0000
0000
0000
0000
1f80
2100
0200
0400
0800
1000
2100
7e00
0000
0000
0000
0000
0000
ENDCHAR
STARTCHAR char123
ENCODING 123
SWIDTH 508 0
DWIDTH 10 0
BBX 10 18 0 -5
BITMAP
0000
0000
0080
0100
0200
0200
0400
0400
0800
1000
0800
0800
0800
0800
0800
0800
0400
0000
ENDCHAR
STARTCHAR char124
ENCODING 124
SWIDTH 508 0
DWIDTH 10 0
BBX 10 18 0 -5
BITMAP
0000
0000
0200
0200
0200
0400
0400
0400
0400
0800
0800
0800
0800
1000
1000
1000
0000
0000
ENDCHAR
STARTCHAR char125
ENCODING 125
SWIDTH 508 0
DWIDTH 10 0
BBX 10 18 0 -5
BITMAP
0000
0000
0400
0200
0200
0200
0200
0200
0200
0100
0200
0400
0400
0800
0800
1000
2000
0000
ENDCHAR
STARTCHAR char126
ENCODING 126
SWIDTH 508 0
DWIDTH 10 0
BBX 10 18 0 -5
BITMAP
0000
0000
0000
0000
0000
0000
0000
0000
3840
4c80
8700
0000
0000
0000
0000
0000
0000
0000
ENDCHAR
STARTCHAR char127
ENCODING 127
SWIDTH 508 0
DWIDTH 10 0
BBX 10 18 0 -5
BITMAP
0000
0000
0000
0000
0000
0000
0000
0000
0000
0000
0000
0000
0000
0000
0000
0000
0000
0000
ENDCHAR
STARTCHAR char128
ENCODING 128
SWIDTH 508 0
DWIDTH 10 0
BBX 10 18 0 -5
BITMAP
0000
0000
0000
0000
0000
0000
0000
0000
0000
0000
0000
0000
0000
0000
0000
0000
0000
0000
ENDCHAR
STARTCHAR char129
ENCODING 129
SWIDTH 508 0
DWIDTH 10 0
BBX 10 18 0 -5
BITMAP
0000
0000
0000
0000
0000
0000
0000
0000
0000
0000
0000
0000
0000
0000
0000
0000
0000
0000
ENDCHAR
STARTCHAR char130
ENCODING 130
SWIDTH 508 0
DWIDTH 10 0
BBX 10 18 0 -5
BITMAP
0000
0000
0000
0000
0000
0000
0000
0000
0000
0000
0000
0000
0000
0000
0000
0000
0000
0000
ENDCHAR
STARTCHAR char131
ENCODING 131
SWIDTH 508 0
DWIDTH 10 0
BBX 10 18 0 -5
BITMAP
0000
0000
0000
0000
0000
0000
0000
0000
0000
0000
0000
0000
0000
0000
0000
0000
0000
0000
ENDCHAR
STARTCHAR char132
ENCODING 132
SWIDTH 508 0
DWIDTH 10 0
BBX 10 18 0 -5
BITMAP
0000
0000
0000
0000
0000
0000
0000
0000
0000
0000
0000
0000
0000
0000
0000
0000
0000
0000
ENDCHAR
STARTCHAR char133
ENCODING 133
SWIDTH 508 0
DWIDTH 10 0
BBX 10 18 0 -5
BITMAP
0000
0000
0000
0000
0000
0000
0000
0000
0000
0000
0000
0000
0000
0000
0000
0000
0000
0000
ENDCHAR
STARTCHAR char134
ENCODING 134
SWIDTH 508 0
DWIDTH 10 0
BBX 10 18 0 -5
BITMAP
0000
0000
0000
0000
0000
0000
0000
0000
0000
0000
0000
0000
0000
0000
0000
0000
0000
0000
ENDCHAR
STARTCHAR char135
ENCODING 135
SWIDTH 508 0
DWIDTH 10 0
BBX 10 18 0 -5
BITMAP
0000
0000
0000
0000
0000
0000
0000
0000
0000
0000
0000
0000
0000
0000
0000
0000
0000
0000
ENDCHAR
STARTCHAR char136
ENCODING 136
SWIDTH 508 0
DWIDTH 10 0
BBX 10 18 0 -5
BITMAP
0000
0000
0000
0000
0000
0000
0000
0000
0000
0000
0000
0000
0000
0000
0000
0000
0000
0000
ENDCHAR
STARTCHAR char137
ENCODING 137
SWIDTH 508 0
DWIDTH 10 0
BBX 10 18 0 -5
BITMAP
0000
0000
0000
0000
0000
0000
0000
0000
0000
0000
0000
0000
0000
0000
0000
0000
0000
0000
ENDCHAR
STARTCHAR char138
ENCODING 138
SWIDTH 508 0
DWIDTH 10 0
BBX 10 18 0 -5
BITMAP
0000
0000
0000
0000
0000
0000
0000
0000
0000
0000
0000
0000
0000
0000
0000
0000
0000
0000
ENDCHAR
STARTCHAR char139
ENCODING 139
SWIDTH 508 0
DWIDTH 10 0
BBX 10 18 0 -5
BITMAP
0000
0000
0000
0000
0000
0000
0000
0000
0000
0000
0000
0000
0000
0000
0000
0000
0000
0000
ENDCHAR
STARTCHAR char140
ENCODING 140
SWIDTH 508 0
DWIDTH 10 0
BBX 10 18 0 -5
BITMAP
0000
0000
0000
0000
0000
0000
0000
0000
0000
0000
0000
0000
0000
0000
0000
0000
0000
0000
ENDCHAR
STARTCHAR char141
ENCODING 141
SWIDTH 508 0
DWIDTH 10 0
BBX 10 18 0 -5
BITMAP
0000
0000
0000
0000
0000
0000
0000
0000
0000
0000
0000
0000
0000
0000
0000
0000
0000
0000
ENDCHAR
STARTCHAR char142
ENCODING 142
SWIDTH 508 0
DWIDTH 10 0
BBX 10 18 0 -5
BITMAP
0000
0000
0000
0000
0000
0000
0000
0000
0000
0000
0000
0000
0000
0000
0000
0000
0000
0000
ENDCHAR
STARTCHAR char143
ENCODING 143
SWIDTH 508 0
DWIDTH 10 0
BBX 10 18 0 -5
BITMAP
0000
0000
0000
0000
0000
0000
0000
0000
0000
0000
0000
0000
0000
0000
0000
0000
0000
0000
ENDCHAR
STARTCHAR char144
ENCODING 144
SWIDTH 508 0
DWIDTH 10 0
BBX 10 18 0 -5
BITMAP
0000
0000
0000
0000
0000
0000
0000
0000
0000
0000
0000
0000
0000
0000
0000
0000
0000
0000
ENDCHAR
STARTCHAR char145
ENCODING 145
SWIDTH 508 0
DWIDTH 10 0
BBX 10 18 0 -5
BITMAP
0000
0000
0000
0000
0000
0000
0000
0000
0000
0000
0000
0000
0000
0000
0000
0000
0000
0000
ENDCHAR
STARTCHAR char146
ENCODING 146
SWIDTH 508 0
DWIDTH 10 0
BBX 10 18 0 -5
BITMAP
0000
0000
0000
0000
0000
0000
0000
0000
0000
0000
0000
0000
0000
0000
0000
0000
0000
0000
ENDCHAR
STARTCHAR char147
ENCODING 147
SWIDTH 508 0
DWIDTH 10 0
BBX 10 18 0 -5
BITMAP
0000
0000
0000
0000
0000
0000
0000
0000
0000
0000
0000
0000
0000
0000
0000
0000
0000
0000
ENDCHAR
STARTCHAR char148
ENCODING 148
SWIDTH 508 0
DWIDTH 10 0
BBX 10 18 0 -5
BITMAP
0000
0000
0000
0000
0000
0000
0000
0000
0000
0000
0000
0000
0000
0000
0000
0000
0000
0000
ENDCHAR
STARTCHAR char149
ENCODING 149
SWIDTH 508 0
DWIDTH 10 0
BBX 10 18 0 -5
BITMAP
0000
0000
0000
0000
0000
0000
0000
0000
0000
0000
0000
0000
0000
0000
0000
0000
0000
0000
ENDCHAR
STARTCHAR char150
ENCODING 150
SWIDTH 508 0
DWIDTH 10 0
BBX 10 18 0 -5
BITMAP
0000
0000
0000
0000
0000
0000
0000
0000
0000
0000
0000
0000
0000
0000
0000
0000
0000
0000
ENDCHAR
STARTCHAR char151
ENCODING 151
SWIDTH 508 0
DWIDTH 10 0
BBX 10 18 0 -5
BITMAP
0000
0000
0000
0000
0000
0000
0000
0000
0000
0000
0000
0000
0000
0000
0000
0000
0000
0000
ENDCHAR
STARTCHAR char152
ENCODING 152
SWIDTH 508 0
DWIDTH 10 0
BBX 10 18 0 -5
BITMAP
0000
0000
0000
0000
0000
0000
0000
0000
0000
0000
0000
0000
0000
0000
0000
0000
0000
0000
ENDCHAR
STARTCHAR char153
ENCODING 153
SWIDTH 508 0
DWIDTH 10 0
BBX 10 18 0 -5
BITMAP
0000
0000
0000
0000
0000
0000
0000
0000
0000
0000
0000
0000
0000
0000
0000
0000
0000
0000
ENDCHAR
STARTCHAR char154
ENCODING 154
SWIDTH 508 0
DWIDTH 10 0
BBX 10 18 0 -5
BITMAP
0000
0000
0000
0000
0000
0000
0000
0000
0000
0000
0000
0000
0000
0000
0000
0000
0000
0000
ENDCHAR
STARTCHAR char155
ENCODING 155
SWIDTH 508 0
DWIDTH 10 0
BBX 10 18 0 -5
BITMAP
0000
0000
0000
0000
0000
0000
0000
0000
0000
0000
0000
0000
0000
0000
0000
0000
0000
0000
ENDCHAR
STARTCHAR char156
ENCODING 156
SWIDTH 508 0
DWIDTH 10 0
BBX 10 18 0 -5
BITMAP
0000
0000
0000
0000
0000
0000
0000
0000
0000
0000
0000
0000
0000
0000
0000
0000
0000
0000
ENDCHAR
STARTCHAR char157
ENCODING 157
SWIDTH 508 0
DWIDTH 10 0
BBX 10 18 0 -5
BITMAP
0000
0000
0000
0000
0000
0000
0000
0000
0000
0000
0000
0000
0000
0000
0000
0000
0000
0000
ENDCHAR
STARTCHAR char158
ENCODING 158
SWIDTH 508 0
DWIDTH 10 0
BBX 10 18 0 -5
BITMAP
0000
0000
0000
0000
0000
0000
0000
0000
0000
0000
0000
0000
0000
0000
0000
0000
0000
0000
ENDCHAR
STARTCHAR char159
ENCODING 159
SWIDTH 508 0
DWIDTH 10 0
BBX 10 18 0 -5
BITMAP
0000
0000
0000
0000
0000
0000
0000
0000
0000
0000
0000
0000
0000
0000
0000
0000
0000
0000
ENDCHAR
STARTCHAR char160
ENCODING 160
SWIDTH 508 0
DWIDTH 10 0
BBX 10 18 0 -5
BITMAP
0000
0000
0000
0000
0000
0000
0000
0000
0000
0000
0000
0000
0000
0000
0000
0000
0000
0000
ENDCHAR
STARTCHAR char161
ENCODING 161
SWIDTH 508 0
DWIDTH 10 0
BBX 10 18 0 -5
BITMAP
0000
0000
0000
0000
0000
0000
0000
0000
0000
0000
0000
0000
0000
0000
0000
0000
0000
0000
ENDCHAR
STARTCHAR char162
ENCODING 162
SWIDTH 508 0
DWIDTH 10 0
BBX 10 18 0 -5
BITMAP
0000
0000
0000
0000
0000
0000
0000
0000
0000
0000
0000
0000
0000
0000
0000
0000
0000
0000
ENDCHAR
STARTCHAR char163
ENCODING 163
SWIDTH 508 0
DWIDTH 10 0
BBX 10 18 0 -5
BITMAP
0000
0000
0000
0000
0000
0000
0000
0000
0000
0000
0000
0000
0000
0000
0000
0000
0000
0000
ENDCHAR
STARTCHAR char164
ENCODING 164
SWIDTH 508 0
DWIDTH 10 0
BBX 10 18 0 -5
BITMAP
0000
0000
0000
0000
0000
0000
0000
0000
0000
0000
0000
0000
0000
0000
0000
0000
0000
0000
ENDCHAR
STARTCHAR char165
ENCODING 165
SWIDTH 508 0
DWIDTH 10 0
BBX 10 18 0 -5
BITMAP
0000
0000
0000
0000
0000
0000
0000
0000
0000
0000
0000
0000
0000
0000
0000
0000
0000
0000
ENDCHAR
STARTCHAR char166
ENCODING 166
SWIDTH 508 0
DWIDTH 10 0
BBX 10 18 0 -5
BITMAP
0000
0000
0000
0000
0000
0000
0000
0000
0000
0000
0000
0000
0000
0000
0000
0000
0000
0000
ENDCHAR
STARTCHAR char167
ENCODING 167
SWIDTH 508 0
DWIDTH 10 0
BBX 10 18 0 -5
BITMAP
0000
0000
0000
0000
0000
0000
0000
0000
0000
0000
0000
0000
0000
0000
0000
0000
0000
0000
ENDCHAR
STARTCHAR char168
ENCODING 168
SWIDTH 508 0
DWIDTH 10 0
BBX 10 18 0 -5
BITMAP
0000
0000
0000
0000
0000
0000
0000
0000
0000
0000
0000
0000
0000
0000
0000
0000
0000
0000
ENDCHAR
STARTCHAR char169
ENCODING 169
SWIDTH 508 0
DWIDTH 10 0
BBX 10 18 0 -5
BITMAP
0000
0000
0000
0000
0000
0000
0000
0000
0000
0000
0000
0000
0000
0000
0000
0000
0000
0000
ENDCHAR
STARTCHAR char170
ENCODING 170
SWIDTH 508 0
DWIDTH 10 0
BBX 10 18 0 -5
BITMAP
0000
0000
0000
0000
0000
0000
0000
0000
0000
0000
0000
0000
0000
0000
0000
0000
0000
0000
ENDCHAR
STARTCHAR char171
ENCODING 171
SWIDTH 508 0
DWIDTH 10 0
BBX 10 18 0 -5
BITMAP
0000
0000
0000
0000
0000
0000
0000
0000
0000
0000
0000
0000
0000
0000
0000
0000
0000
0000
ENDCHAR
STARTCHAR char172
ENCODING 172
SWIDTH 508 0
DWIDTH 10 0
BBX 10 18 0 -5
BITMAP
0000
0000
0000
0000
0000
0000
0000
0000
0000
0000
0000
0000
0000
0000
0000
0000
0000
0000
ENDCHAR
STARTCHAR char173
ENCODING 173
SWIDTH 508 0
DWIDTH 10 0
BBX 10 18 0 -5
BITMAP
0000
0000
0000
0000
0000
0000
0000
0000
0000
0000
0000
0000
0000
0000
0000
0000
0000
0000
ENDCHAR
STARTCHAR char174
ENCODING 174
SWIDTH 508 0
DWIDTH 10 0
BBX 10 18 0 -5
BITMAP
0000
0000
0000
0000
0000
0000
0000
0000
0000
0000
0000
0000
0000
0000
0000
0000
0000
0000
ENDCHAR
STARTCHAR char175
ENCODING 175
SWIDTH 508 0
DWIDTH 10 0
BBX 10 18 0 -5
BITMAP
0000
0000
0000
0000
0000
0000
0000
0000
0000
0000
0000
0000
0000
0000
0000
0000
0000
0000
ENDCHAR
STARTCHAR char176
ENCODING 176
SWIDTH 508 0
DWIDTH 10 0
BBX 10 18 0 -5
BITMAP
0000
0000
0000
0000
0000
0000
0000
0000
0000
0000
0000
0000
0000
0000
0000
0000
0000
0000
ENDCHAR
STARTCHAR char177
ENCODING 177
SWIDTH 508 0
DWIDTH 10 0
BBX 10 18 0 -5
BITMAP
0000
0000
0000
0000
0000
0000
0000
0000
0000
0000
0000
0000
0000
0000
0000
0000
0000
0000
ENDCHAR
STARTCHAR char178
ENCODING 178
SWIDTH 508 0
DWIDTH 10 0
BBX 10 18 0 -5
BITMAP
0000
0000
0000
0000
0000
0000
0000
0000
0000
0000
0000
0000
0000
0000
0000
0000
0000
0000
ENDCHAR
STARTCHAR char179
ENCODING 179
SWIDTH 508 0
DWIDTH 10 0
BBX 10 18 0 -5
BITMAP
0000
0000
0000
0000
0000
0000
0000
0000
0000
0000
0000
0000
0000
0000
0000
0000
0000
0000
ENDCHAR
STARTCHAR char180
ENCODING 180
SWIDTH 508 0
DWIDTH 10 0
BBX 10 18 0 -5
BITMAP
0000
0000
0000
0000
0000
0000
0000
0000
0000
0000
0000
0000
0000
0000
0000
0000
0000
0000
ENDCHAR
STARTCHAR char181
ENCODING 181
SWIDTH 508 0
DWIDTH 10 0
BBX 10 18 0 -5
BITMAP
0000
0000
0000
0000
0000
0000
0000
0000
0000
0000
0000
0000
0000
0000
0000
0000
0000
0000
ENDCHAR
STARTCHAR char182
ENCODING 182
SWIDTH 508 0
DWIDTH 10 0
BBX 10 18 0 -5
BITMAP
0000
0000
0000
0000
0000
0000
0000
0000
0000
0000
0000
0000
0000
0000
0000
0000
0000
0000
ENDCHAR
STARTCHAR char183
ENCODING 183
SWIDTH 508 0
DWIDTH 10 0
BBX 10 18 0 -5
BITMAP
0000
0000
0000
0000
0000
0000
0000
0000
0000
0000
0000
0000
0000
0000
0000
0000
0000
0000
ENDCHAR
STARTCHAR char184
ENCODING 184
SWIDTH 508 0
DWIDTH 10 0
BBX 10 18 0 -5
BITMAP
0000
0000
0000
0000
0000
0000
0000
0000
0000
0000
0000
0000
0000
0000
0000
0000
0000
0000
ENDCHAR
STARTCHAR char185
ENCODING 185
SWIDTH 508 0
DWIDTH 10 0
BBX 10 18 0 -5
BITMAP
0000
0000
0000
0000
0000
0000
0000
0000
0000
0000
0000
0000
0000
0000
0000
0000
0000
0000
ENDCHAR
STARTCHAR char186
ENCODING 186
SWIDTH 508 0
DWIDTH 10 0
BBX 10 18 0 -5
BITMAP
0000
0000
0000
0000
0000
0000
0000
0000
0000
0000
0000
0000
0000
0000
0000
0000
0000
0000
ENDCHAR
STARTCHAR char187
ENCODING 187
SWIDTH 508 0
DWIDTH 10 0
BBX 10 18 0 -5
BITMAP
0000
0000
0000
0000
0000
0000
0000
0000
0000
0000
0000
0000
0000
0000
0000
0000
0000
0000
ENDCHAR
STARTCHAR char188
ENCODING 188
SWIDTH 508 0
DWIDTH 10 0
BBX 10 18 0 -5
BITMAP
0000
0000
0000
0000
0000
0000
0000
0000
0000
0000
0000
0000
0000
0000
0000
0000
0000
0000
ENDCHAR
STARTCHAR char189
ENCODING 189
SWIDTH 508 0
DWIDTH 10 0
BBX 10 18 0 -5
BITMAP
0000
0000
0000
0000
0000
0000
0000
0000
0000
0000
0000
0000
0000
0000
0000
0000
0000
0000
ENDCHAR
STARTCHAR char190
ENCODING 190
SWIDTH 508 0
DWIDTH 10 0
BBX 10 18 0 -5
BITMAP
0000
0000
0000
0000
0000
0000
0000
0000
0000
0000
0000
0000
0000
0000
0000
0000
0000
0000
ENDCHAR
STARTCHAR char191
ENCODING 191
SWIDTH 508 0
DWIDTH 10 0
BBX 10 18 0 -5
BITMAP
0000
0000
0000
0000
0000
0000
0000
0000
0000
0000
0000
0000
0000
0000
0000
0000
0000
0000
ENDCHAR
STARTCHAR char192
ENCODING 192
SWIDTH 508 0
DWIDTH 10 0
BBX 10 18 0 -5
BITMAP
0000
0000
0000
0000
0000
0000
0000
0000
0000
0000
0000
0000
0000
0000
0000
0000
0000
0000
ENDCHAR
STARTCHAR char193
ENCODING 193
SWIDTH 508 0
DWIDTH 10 0
BBX 10 18 0 -5
BITMAP
0000
0000
0000
0000
0000
0000
0000
0000
0000
0000
0000
0000
0000
0000
0000
0000
0000
0000
ENDCHAR
STARTCHAR char194
ENCODING 194
SWIDTH 508 0
DWIDTH 10 0
BBX 10 18 0 -5
BITMAP
0000
0000
0000
0000
0000
0000
0000
0000
0000
0000
0000
0000
0000
0000
0000
0000
0000
0000
ENDCHAR
STARTCHAR char195
ENCODING 195
SWIDTH 508 0
DWIDTH 10 0
BBX 10 18 0 -5
BITMAP
0000
0000
0000
0000
0000
0000
0000
0000
0000
0000
0000
0000
0000
0000
0000
0000
0000
0000
ENDCHAR
STARTCHAR char196
ENCODING 196
SWIDTH 508 0
DWIDTH 10 0
BBX 10 18 0 -5
BITMAP
0000
0000
0000
0000
0000
0000
0000
0000
0000
0000
0000
0000
0000
0000
0000
0000
0000
0000
ENDCHAR
STARTCHAR char197
ENCODING 197
SWIDTH 508 0
DWIDTH 10 0
BBX 10 18 0 -5
BITMAP
0000
0000
0000
0000
0000
0000
0000
0000
0000
0000
0000
0000
0000
0000
0000
0000
0000
0000
ENDCHAR
STARTCHAR char198
ENCODING 198
SWIDTH 508 0
DWIDTH 10 0
BBX 10 18 0 -5
BITMAP
0000
0000
0000
0000
0000
0000
0000
0000
0000
0000
0000
0000
0000
0000
0000
0000
0000
0000
ENDCHAR
STARTCHAR char199
ENCODING 199
SWIDTH 508 0
DWIDTH 10 0
BBX 10 18 0 -5
BITMAP
0000
0000
0000
0000
0000
0000
0000
0000
0000
0000
0000
0000
0000
0000
0000
0000
0000
0000
ENDCHAR
STARTCHAR char200
ENCODING 200
SWIDTH 508 0
DWIDTH 10 0
BBX 10 18 0 -5
BITMAP
0000
0000
0000
0000
0000
0000
0000
0000
0000
0000
0000
0000
0000
0000
0000
0000
0000
0000
ENDCHAR
STARTCHAR char201
ENCODING 201
SWIDTH 508 0
DWIDTH 10 0
BBX 10 18 0 -5
BITMAP
0000
0000
0000
0000
0000
0000
0000
0000
0000
0000
0000
0000
0000
0000
0000
0000
0000
0000
ENDCHAR
STARTCHAR char202
ENCODING 202
SWIDTH 508 0
DWIDTH 10 0
BBX 10 18 0 -5
BITMAP
0000
0000
0000
0000
0000
0000
0000
0000
0000
0000
0000
0000
0000
0000
0000
0000
0000
0000
ENDCHAR
STARTCHAR char203
ENCODING 203
SWIDTH 508 0
DWIDTH 10 0
BBX 10 18 0 -5
BITMAP
0000
0000
0000
0000
0000
0000
0000
0000
0000
0000
0000
0000
0000
0000
0000
0000
0000
0000
ENDCHAR
STARTCHAR char204
ENCODING 204
SWIDTH 508 0
DWIDTH 10 0
BBX 10 18 0 -5
BITMAP
0000
0000
0000
0000
0000
0000
0000
0000
0000
0000
0000
0000
0000
0000
0000
0000
0000
0000
ENDCHAR
STARTCHAR char205
ENCODING 205
SWIDTH 508 0
DWIDTH 10 0
BBX 10 18 0 -5
BITMAP
0000
0000
0000
0000
0000
0000
0000
0000
0000
0000
0000
0000
0000
0000
0000
0000
0000
0000
ENDCHAR
STARTCHAR char206
ENCODING 206
SWIDTH 508 0
DWIDTH 10 0
BBX 10 18 0 -5
BITMAP
0000
0000
0000
0000
0000
0000
0000
0000
0000
0000
0000
0000
0000
0000
0000
0000
0000
0000
ENDCHAR
STARTCHAR char207
ENCODING 207
SWIDTH 508 0
DWIDTH 10 0
BBX 10 18 0 -5
BITMAP
0000
0000
0000
0000
0000
0000
0000
0000
0000
0000
0000
0000
0000
0000
0000
0000
0000
0000
ENDCHAR
STARTCHAR char208
ENCODING 208
SWIDTH 508 0
DWIDTH 10 0
BBX 10 18 0 -5
BITMAP
0000
0000
0000
0000
0000
0000
0000
0000
0000
0000
0000
0000
0000
0000
0000
0000
0000
0000
ENDCHAR
STARTCHAR char209
ENCODING 209
SWIDTH 508 0
DWIDTH 10 0
BBX 10 18 0 -5
BITMAP
0000
0000
0000
0000
0000
0000
0000
0000
0000
0000
0000
0000
0000
0000
0000
0000
0000
0000
ENDCHAR
STARTCHAR char210
ENCODING 210
SWIDTH 508 0
DWIDTH 10 0
BBX 10 18 0 -5
BITMAP
0000
0000
0000
0000
0000
0000
0000
0000
0000
0000
0000
0000
0000
0000
0000
0000
0000
0000
ENDCHAR
STARTCHAR char211
ENCODING 211
SWIDTH 508 0
DWIDTH 10 0
BBX 10 18 0 -5
BITMAP
0000
0000
0000
0000
0000
0000
0000
0000
0000
0000
0000
0000
0000
0000
0000
0000
0000
0000
ENDCHAR
STARTCHAR char212
ENCODING 212
SWIDTH 508 0
DWIDTH 10 0
BBX 10 18 0 -5
BITMAP
0000
0000
0000
0000
0000
0000
0000
0000
0000
0000
0000
0000
0000
0000
0000
0000
0000
0000
ENDCHAR
STARTCHAR char213
ENCODING 213
SWIDTH 508 0
DWIDTH 10 0
BBX 10 18 0 -5
BITMAP
0000
0000
0000
0000
0000
0000
0000
0000
0000
0000
0000
0000
0000
0000
0000
0000
0000
0000
ENDCHAR
STARTCHAR char214
ENCODING 214
SWIDTH 508 0
DWIDTH 10 0
BBX 10 18 0 -5
BITMAP
0000
0000
0000
0000
0000
0000
0000
0000
0000
0000
0000
0000
0000
0000
0000
0000
0000
0000
ENDCHAR
STARTCHAR char215
ENCODING 215
SWIDTH 508 0
DWIDTH 10 0
BBX 10 18 0 -5
BITMAP
0000
0000
0000
0000
0000
0000
0000
0000
0000
0000
0000
0000
0000
0000
0000
0000
0000
0000
ENDCHAR
STARTCHAR char216
ENCODING 216
SWIDTH 508 0
DWIDTH 10 0
BBX 10 18 0 -5
BITMAP
0000
0000
0000
0000
0000
0000
0000
0000
0000
0000
0000
0000
0000
0000
0000
0000
0000
0000
ENDCHAR
STARTCHAR char217
ENCODING 217
SWIDTH 508 0
DWIDTH 10 0
BBX 10 18 0 -5
BITMAP
0000
0000
0000
0000
0000
0000
0000
0000
0000
0000
0000
0000
0000
0000
0000
0000
0000
0000
ENDCHAR
STARTCHAR char218
ENCODING 218
SWIDTH 508 0
DWIDTH 10 0
BBX 10 18 0 -5
BITMAP
0000
0000
0000
0000
0000
0000
0000
0000
0000
0000
0000
0000
0000
0000
0000
0000
0000
0000
ENDCHAR
STARTCHAR char219
ENCODING 219
SWIDTH 508 0
DWIDTH 10 0
BBX 10 18 0 -5
BITMAP
0000
0000
0000
0000
0000
0000
0000
0000
0000
0000
0000
0000
0000
0000
0000
0000
0000
0000
ENDCHAR
STARTCHAR char220
ENCODING 220
SWIDTH 508 0
DWIDTH 10 0
BBX 10 18 0 -5
BITMAP
0000
0000
0000
0000
0000
0000
0000
0000
0000
0000
0000
0000
0000
0000
0000
0000
0000
0000
ENDCHAR
STARTCHAR char221
ENCODING 221
SWIDTH 508 0
DWIDTH 10 0
BBX 10 18 0 -5
BITMAP
0000
0000
0000
0000
0000
0000
0000
0000
0000
0000
0000
0000
0000
0000
0000
0000
0000
0000
ENDCHAR
STARTCHAR char222
ENCODING 222
SWIDTH 508 0
DWIDTH 10 0
BBX 10 18 0 -5
BITMAP
0000
0000
0000
0000
0000
0000
0000
0000
0000
0000
0000
0000
0000
0000
0000
0000
0000
0000
ENDCHAR
STARTCHAR char223
ENCODING 223
SWIDTH 508 0
DWIDTH 10 0
BBX 10 18 0 -5
BITMAP
0000
0000
0000
0000
0000
0000
0000
0000
0000
0000
0000
0000
0000
0000
0000
0000
0000
0000
ENDCHAR
STARTCHAR char224
ENCODING 224
SWIDTH 508 0
DWIDTH 10 0
BBX 10 18 0 -5
BITMAP
0000
0000
0000
0000
0000
0000
0000
0000
0000
0000
0000
0000
0000
0000
0000
0000
0000
0000
ENDCHAR
STARTCHAR char225
ENCODING 225
SWIDTH 508 0
DWIDTH 10 0
BBX 10 18 0 -5
BITMAP
0000
0000
0000
0000
0000
0000
0000
0000
0000
0000
0000
0000
0000
0000
0000
0000
0000
0000
ENDCHAR
STARTCHAR char226
ENCODING 226
SWIDTH 508 0
DWIDTH 10 0
BBX 10 18 0 -5
BITMAP
0000
0000
0000
0000
0000
0000
0000
0000
0000
0000
0000
0000
0000
0000
0000
0000
0000
0000
ENDCHAR
STARTCHAR char227
ENCODING 227
SWIDTH 508 0
DWIDTH 10 0
BBX 10 18 0 -5
BITMAP
0000
0000
0000
0000
0000
0000
0000
0000
0000
0000
0000
0000
0000
0000
0000
0000
0000
0000
ENDCHAR
STARTCHAR char228
ENCODING 228
SWIDTH 508 0
DWIDTH 10 0
BBX 10 18 0 -5
BITMAP
0000
0000
0000
0000
0000
0000
0000
0000
0000
0000
0000
0000
0000
0000
0000
0000
0000
0000
ENDCHAR
STARTCHAR char229
ENCODING 229
SWIDTH 508 0
DWIDTH 10 0
BBX 10 18 0 -5
BITMAP
0000
0000
0000
0000
0000
0000
0000
0000
0000
0000
0000
0000
0000
0000
0000
0000
0000
0000
ENDCHAR
STARTCHAR char230
ENCODING 230
SWIDTH 508 0
DWIDTH 10 0
BBX 10 18 0 -5
BITMAP
0000
0000
0000
0000
0000
0000
0000
0000
0000
0000
0000
0000
0000
0000
0000
0000
0000
0000
ENDCHAR
STARTCHAR char231
ENCODING 231
SWIDTH 508 0
DWIDTH 10 0
BBX 10 18 0 -5
BITMAP
0000
0000
0000
0000
0000
0000
0000
0000
0000
0000
0000
0000
0000
0000
0000
0000
0000
0000
ENDCHAR
STARTCHAR char232
ENCODING 232
SWIDTH 508 0
DWIDTH 10 0
BBX 10 18 0 -5
BITMAP
0000
0000
0000
0000
0000
0000
0000
0000
0000
0000
0000
0000
0000
0000
0000
0000
0000
0000
ENDCHAR
STARTCHAR char233
ENCODING 233
SWIDTH 508 0
DWIDTH 10 0
BBX 10 18 0 -5
BITMAP
0000
0000
0000
0000
0000
0000
0000
0000
0000
0000
0000
0000
0000
0000
0000
0000
0000
0000
ENDCHAR
STARTCHAR char234
ENCODING 234
SWIDTH 508 0
DWIDTH 10 0
BBX 10 18 0 -5
BITMAP
0000
0000
0000
0000
0000
0000
0000
0000
0000
0000
0000
0000
0000
0000
0000
0000
0000
0000
ENDCHAR
STARTCHAR char235
ENCODING 235
SWIDTH 508 0
DWIDTH 10 0
BBX 10 18 0 -5
BITMAP
0000
0000
0000
0000
0000
0000
0000
0000
0000
0000
0000
0000
0000
0000
0000
0000
0000
0000
ENDCHAR
STARTCHAR char236
ENCODING 236
SWIDTH 508 0
DWIDTH 10 0
BBX 10 18 0 -5
BITMAP
0000
0000
0000
0000
0000
0000
0000
0000
0000
0000
0000
0000
0000
0000
0000
0000
0000
0000
ENDCHAR
STARTCHAR char237
ENCODING 237
SWIDTH 508 0
DWIDTH 10 0
BBX 10 18 0 -5
BITMAP
0000
0000
0000
0000
0000
0000
0000
0000
0000
0000
0000
0000
0000
0000
0000
0000
0000
0000
ENDCHAR
STARTCHAR char238
ENCODING 238
SWIDTH 508 0
DWIDTH 10 0
BBX 10 18 0 -5
BITMAP
0000
0000
0000
0000
0000
0000
0000
0000
0000
0000
0000
0000
0000
0000
0000
0000
0000
0000
ENDCHAR
STARTCHAR char239
ENCODING 239
SWIDTH 508 0
DWIDTH 10 0
BBX 10 18 0 -5
BITMAP
0000
0000
0000
0000
0000
0000
0000
0000
0000
0000
0000
0000
0000
0000
0000
0000
0000
0000
ENDCHAR
STARTCHAR char240
ENCODING 240
SWIDTH 508 0
DWIDTH 10 0
BBX 10 18 0 -5
BITMAP
0000
0000
0000
0000
0000
0000
0000
0000
0000
0000
0000
0000
0000
0000
0000
0000
0000
0000
ENDCHAR
STARTCHAR char241
ENCODING 241
SWIDTH 508 0
DWIDTH 10 0
BBX 10 18 0 -5
BITMAP
0000
0000
0000
0000
0000
0000
0000
0000
0000
0000
0000
0000
0000
0000
0000
0000
0000
0000
ENDCHAR
STARTCHAR char242
ENCODING 242
SWIDTH 508 0
DWIDTH 10 0
BBX 10 18 0 -5
BITMAP
0000
0000
0000
0000
0000
0000
0000
0000
0000
0000
0000
0000
0000
0000
0000
0000
0000
0000
ENDCHAR
STARTCHAR char243
ENCODING 243
SWIDTH 508 0
DWIDTH 10 0
BBX 10 18 0 -5
BITMAP
0000
0000
0000
0000
0000
0000
0000
0000
0000
0000
0000
0000
0000
0000
0000
0000
0000
0000
ENDCHAR
STARTCHAR char244
ENCODING 244
SWIDTH 508 0
DWIDTH 10 0
BBX 10 18 0 -5
BITMAP
0000
0000
0000
0000
0000
0000
0000
0000
0000
0000
0000
0000
0000
0000
0000
0000
0000
0000
ENDCHAR
STARTCHAR char245
ENCODING 245
SWIDTH 508 0
DWIDTH 10 0
BBX 10 18 0 -5
BITMAP
0000
0000
0000
0000
0000
0000
0000
0000
0000
0000
0000
0000
0000
0000
0000
0000
0000
0000
ENDCHAR
STARTCHAR char246
ENCODING 246
SWIDTH 508 0
DWIDTH 10 0
BBX 10 18 0 -5
BITMAP
0000
0000
0000
0000
0000
0000
0000
0000
0000
0000
0000
0000
0000
0000
0000
0000
0000
0000
ENDCHAR
STARTCHAR char247
ENCODING 247
SWIDTH 508 0
DWIDTH 10 0
BBX 10 18 0 -5
BITMAP
0000
0000
0000
0000
0000
0000
0000
0000
0000
0000
0000
0000
0000
0000
0000
0000
0000
0000
ENDCHAR
STARTCHAR char248
ENCODING 248
SWIDTH 508 0
DWIDTH 10 0
BBX 10 18 0 -5
BITMAP
0000
0000
0000
0000
0000
0000
0000
0000
0000
0000
0000
0000
0000
0000
0000
0000
0000
0000
ENDCHAR
STARTCHAR char249
ENCODING 249
SWIDTH 508 0
DWIDTH 10 0
BBX 10 18 0 -5
BITMAP
0000
0000
0000
0000
0000
0000
0000
0000
0000
0000
0000
0000
0000
0000
0000
0000
0000
0000
ENDCHAR
STARTCHAR char250
ENCODING 250
SWIDTH 508 0
DWIDTH 10 0
BBX 10 18 0 -5
BITMAP
0000
0000
0000
0000
0000
0000
0000
0000
0000
0000
0000
0000
0000
0000
0000
0000
0000
0000
ENDCHAR
STARTCHAR char251
ENCODING 251
SWIDTH 508 0
DWIDTH 10 0
BBX 10 18 0 -5
BITMAP
0000
0000
0000
0000
0000
0000
0000
0000
0000
0000
0000
0000
0000
0000
0000
0000
0000
0000
ENDCHAR
STARTCHAR char252
ENCODING 252
SWIDTH 508 0
DWIDTH 10 0
BBX 10 18 0 -5
BITMAP
0000
0000
0000
0000
0000
0000
0000
0000
0000
0000
0000
0000
0000
0000
0000
0000
0000
0000
ENDCHAR
STARTCHAR char253
ENCODING 253
SWIDTH 508 0
DWIDTH 10 0
BBX 10 18 0 -5
BITMAP
0000
0000
0000
0000
0000
0000
0000
0000
0000
0000
0000
0000
0000
0000
0000
0000
0000
0000
ENDCHAR
STARTCHAR char254
ENCODING 254
SWIDTH 508 0
DWIDTH 10 0
BBX 10 18 0 -5
BITMAP
0000
0000
0000
0000
0000
0000
0000
0000
0000
0000
0000
0000
0000
0000
0000
0000
0000
0000
ENDCHAR
STARTCHAR char255
ENCODING 255
SWIDTH 508 0
DWIDTH 10 0
BBX 10 18 0 -5
BITMAP
0000
0000
0000
0000
0000
0000
0000
0000
0000
0000
0000
0000
0000
0000
0000
0000
0000
0000
ENDCHAR
ENDFONT
